<?xml version="1.0" encoding="UTF-8"?>
<svg xmlns="http://www.w3.org/2000/svg" xmlns:xlink="http://www.w3.org/1999/xlink" width="189.5pt" height="53.8pt" viewBox="0 0 189.5 53.8" version="1.1">
<defs>
<clipPath id="clip1">
  <path d="M 0 31 L 29 31 L 29 53.800781 L 0 53.800781 Z M 0 31 "/>
</clipPath>
<clipPath id="clip2">
  <path d="M 41 31 L 70 31 L 70 53.800781 L 41 53.800781 Z M 41 31 "/>
</clipPath>
<clipPath id="clip3">
  <path d="M 82 31 L 111 31 L 111 53.800781 L 82 53.800781 Z M 82 31 "/>
</clipPath>
<clipPath id="clip4">
  <path d="M 121 32 L 151 32 L 151 53.800781 L 121 53.800781 Z M 121 32 "/>
</clipPath>
<clipPath id="clip5">
  <path d="M 158 31 L 187 31 L 187 53.800781 L 158 53.800781 Z M 158 31 "/>
</clipPath>
<clipPath id="clip6">
  <path d="M 2 0 L 189.5 0 L 189.5 28 L 2 28 Z M 2 0 "/>
</clipPath>
</defs>
<g id="surface1">
<g clip-path="url(#clip1)" clip-rule="nonzero">
<path style=" stroke:none;fill-rule:evenodd;fill:rgb(80.46875%,33.714294%,23.925781%);fill-opacity:1;" d="M 14.210938 31.9375 C 6.414063 31.9375 0.0898438 36.714844 0.0898438 42.605469 C 0.0898438 48.496094 6.414063 53.277344 14.210938 53.277344 C 22.007813 53.277344 28.332031 48.496094 28.332031 42.605469 C 28.332031 36.714844 22.007813 31.9375 14.210938 31.9375 Z M 14.210938 31.9375 "/>
</g>
<g clip-path="url(#clip2)" clip-rule="nonzero">
<path style=" stroke:none;fill-rule:evenodd;fill:rgb(80.46875%,33.714294%,23.925781%);fill-opacity:1;" d="M 55.320313 31.9375 C 47.523438 31.9375 41.199219 36.714844 41.199219 42.605469 C 41.199219 48.496094 47.523438 53.277344 55.320313 53.277344 C 63.117188 53.277344 69.441406 48.496094 69.441406 42.605469 C 69.441406 36.714844 63.117188 31.9375 55.320313 31.9375 Z M 55.320313 31.9375 "/>
</g>
<g clip-path="url(#clip3)" clip-rule="nonzero">
<path style=" stroke:none;fill-rule:evenodd;fill:rgb(80.46875%,33.714294%,23.925781%);fill-opacity:1;" d="M 96.425781 31.9375 C 88.628906 31.9375 82.304688 36.714844 82.304688 42.605469 C 82.304688 48.496094 88.628906 53.277344 96.425781 53.277344 C 104.222656 53.277344 110.546875 48.496094 110.546875 42.605469 C 110.546875 36.714844 104.222656 31.9375 96.425781 31.9375 Z M 96.425781 31.9375 "/>
</g>
<g clip-path="url(#clip4)" clip-rule="nonzero">
<path style=" stroke:none;fill-rule:evenodd;fill:rgb(80.46875%,33.714294%,23.925781%);fill-opacity:1;" d="M 135.914063 32.371094 C 128.117188 32.371094 121.792969 37.148438 121.792969 43.039063 C 121.792969 48.933594 128.117188 53.710938 135.914063 53.710938 C 143.710938 53.710938 150.035156 48.933594 150.035156 43.039063 C 150.035156 37.148438 143.710938 32.371094 135.914063 32.371094 Z M 135.914063 32.371094 "/>
</g>
<g clip-path="url(#clip5)" clip-rule="nonzero">
<path style=" stroke:none;fill-rule:evenodd;fill:rgb(80.46875%,33.714294%,23.925781%);fill-opacity:1;" d="M 172.679688 31.9375 C 164.882813 31.9375 158.558594 36.714844 158.558594 42.605469 C 158.558594 48.496094 164.882813 53.277344 172.679688 53.277344 C 180.476563 53.277344 186.800781 48.496094 186.800781 42.605469 C 186.800781 36.714844 180.476563 31.9375 172.679688 31.9375 Z M 172.679688 31.9375 "/>
</g>
<g clip-path="url(#clip6)" clip-rule="nonzero">
<path style=" stroke:none;fill-rule:evenodd;fill:rgb(4.315186%,25.488281%,52.929688%);fill-opacity:1;" d="M 30.574219 0.378906 L 27.152344 16.289063 C 26.347656 20.003906 24.914063 22.757813 22.851563 24.539063 C 20.789063 26.320313 17.722656 27.210938 13.65625 27.210938 C 11.398438 27.210938 9.597656 26.988281 8.246094 26.546875 C 6.898438 26.101563 5.765625 25.433594 4.835938 24.550781 C 3.914063 23.660156 3.238281 22.652344 2.820313 21.515625 C 2.402344 20.378906 2.1875 19.167969 2.1875 17.871094 C 2.1875 16.226563 2.355469 14.652344 2.679688 13.15625 L 5.394531 0.378906 L 13.582031 0.378906 L 10.414063 15.226563 C 10.273438 15.917969 10.199219 16.65625 10.199219 17.4375 C 10.199219 19.523438 11.433594 20.570313 13.910156 20.570313 C 15.21875 20.570313 16.328125 20.175781 17.242188 19.382813 C 18.164063 18.589844 18.859375 17.054688 19.339844 14.777344 L 22.347656 0.378906 Z M 61.234375 0.378906 L 55.566406 26.761719 L 47.9375 26.761719 L 41.402344 11.429688 L 41.328125 11.429688 L 38.054688 26.761719 L 30.390625 26.761719 L 36.058594 0.378906 L 43.6875 0.378906 L 50.1875 15.746094 L 50.257813 15.746094 L 53.570313 0.378906 Z M 75.394531 0.378906 L 69.742188 26.761719 L 61.488281 26.761719 L 67.140625 0.378906 Z M 106.277344 0.378906 L 100.609375 26.761719 L 92.980469 26.761719 L 86.445313 11.429688 L 86.371094 11.429688 L 83.097656 26.761719 L 75.429688 26.761719 L 81.101563 0.378906 L 88.730469 0.378906 L 95.226563 15.746094 L 95.300781 15.746094 L 98.613281 0.378906 Z M 123.820313 -0.0703125 C 127.839844 -0.0703125 130.792969 1.003906 132.679688 3.160156 C 134.558594 5.3125 135.496094 7.957031 135.496094 11.105469 C 135.496094 12.3125 135.324219 13.703125 134.980469 15.25 C 134.632813 16.804688 133.960938 18.414063 132.960938 20.078125 C 131.964844 21.734375 130.675781 23.148438 129.085938 24.304688 C 127.492188 25.464844 125.96875 26.238281 124.503906 26.625 C 123.039063 27.019531 121.488281 27.210938 119.847656 27.210938 C 116.074219 27.210938 113.140625 26.257813 111.027344 24.347656 C 108.914063 22.441406 107.855469 19.765625 107.855469 16.324219 C 107.855469 14.523438 108.121094 12.769531 108.644531 11.0625 C 109.164063 9.351563 109.945313 7.738281 110.984375 6.21875 C 112.019531 4.703125 113.300781 3.433594 114.816406 2.40625 C 116.332031 1.378906 117.824219 0.710938 119.292969 0.398438 C 120.769531 0.0859375 122.273438 -0.0703125 123.820313 -0.0703125 Z M 120.351563 21.203125 C 121.921875 21.203125 123.257813 20.605469 124.355469 19.421875 C 125.449219 18.230469 126.253906 16.734375 126.757813 14.929688 C 127.261719 13.125 127.511719 11.835938 127.511719 11.066406 C 127.511719 9.378906 127.082031 8.101563 126.222656 7.234375 C 125.367188 6.375 124.269531 5.9375 122.941406 5.9375 C 121.449219 5.9375 120.171875 6.484375 119.097656 7.566406 C 118.023438 8.652344 117.21875 10.101563 116.675781 11.910156 C 116.136719 13.707031 115.867188 15.25 115.867188 16.519531 C 115.867188 17.867188 116.265625 18.976563 117.058594 19.867188 C 117.84375 20.753906 118.945313 21.203125 120.351563 21.203125 Z M 165.355469 0.378906 L 150.539063 26.761719 L 141.726563 26.761719 L 136.652344 0.378906 L 144.75 0.378906 L 147.105469 19.167969 L 147.179688 19.167969 L 156.515625 0.378906 Z M 189.558594 0.378906 L 188.351563 6.046875 L 174.960938 6.046875 L 174.078125 10.242188 L 186.984375 10.242188 L 185.796875 15.585938 L 172.910156 15.585938 L 171.792969 20.746094 L 186.320313 20.746094 L 185.023438 26.761719 L 162.363281 26.761719 L 167.996094 0.378906 Z M 189.558594 0.378906 "/>
</g>
</g>
</svg>
